<svg width="25" height="25" viewBox="0 0 25 25" fill="none" xmlns="http://www.w3.org/2000/svg">
<path d="M12.3874 0.385254C9.484 0.385377 6.6754 1.44473 4.46412 3.37377C2.25283 5.30281 0.783166 7.97565 0.318083 10.914C-0.147 13.8524 0.422851 16.8646 1.92567 19.4116C3.42849 21.9587 5.76622 23.8743 8.52055 24.8158C9.13191 24.9255 9.36117 24.5494 9.36117 24.2203C9.36117 23.9226 9.34588 22.9353 9.34588 21.8854C6.27378 22.4652 5.47902 21.1176 5.23447 20.4124C4.96312 19.7266 4.53297 19.1188 3.98119 18.6416C3.55323 18.4065 2.94187 17.8267 3.96589 17.8111C4.3569 17.8546 4.73192 17.9941 5.05917 18.2177C5.38643 18.4414 5.65627 18.7427 5.84583 19.096C6.01306 19.404 6.23793 19.6752 6.50755 19.894C6.77718 20.1127 7.08625 20.2748 7.41706 20.3709C7.74788 20.4669 8.09394 20.4951 8.4354 20.4539C8.77687 20.4126 9.10703 20.3026 9.40697 20.1303C9.45991 19.4929 9.73694 18.8971 10.1865 18.4536C7.46593 18.1401 4.62311 17.0588 4.62311 12.2637C4.60593 11.0177 5.05435 9.81223 5.8764 8.89446C5.50259 7.81158 5.54633 6.6232 5.99867 5.57228C5.99867 5.57228 7.02266 5.24318 9.36115 6.85727C11.3619 6.2931 13.474 6.2931 15.4747 6.85727C17.8132 5.22753 18.8372 5.57228 18.8372 5.57228C19.2896 6.62318 19.3334 7.81159 18.9595 8.89446C19.784 9.81066 20.2328 11.0172 20.2128 12.2637C20.2128 17.0745 17.3546 18.1401 14.6341 18.4536C14.9259 18.7568 15.1507 19.1209 15.2931 19.5211C15.4355 19.9212 15.4922 20.3482 15.4595 20.7728C15.4595 22.4496 15.4442 23.7972 15.4442 24.2204C15.4442 24.5495 15.6734 24.9412 16.2848 24.8159C19.0343 23.8667 21.3653 21.9465 22.8617 19.3982C24.3581 16.8499 24.9225 13.8392 24.4542 10.9037C23.9859 7.96815 22.5154 5.29879 20.3051 3.3721C18.0947 1.44541 15.2885 0.386802 12.3874 0.385254Z" fill="white"/>
</svg>
