<svg width="11" height="19" viewBox="0 0 11 19" fill="none" xmlns="http://www.w3.org/2000/svg">
<path d="M7.38908 3.73014H9.70273C9.91559 3.73014 10.0883 3.56736 10.0883 3.36678V1.1866C10.0883 0.986029 9.91559 0.823242 9.70273 0.823242H7.38908C5.05074 0.823242 3.14738 2.61607 3.14738 4.82023V7.36377H0.448109C0.235253 7.36377 0.0625 7.52656 0.0625 7.72713V9.90731C0.0625 10.1079 0.235253 10.2707 0.448109 10.2707H3.14738V17.9013C3.14738 18.1019 3.32013 18.2647 3.53298 18.2647H5.84664C6.0595 18.2647 6.23225 18.1019 6.23225 17.9013V10.2707H8.93152C9.09733 10.2707 9.24463 10.1704 9.29785 10.0221L10.0691 7.84196C10.1084 7.73149 10.0883 7.6094 10.0159 7.5142C9.94258 7.41973 9.8269 7.36377 9.70273 7.36377H6.23225V4.82023C6.23225 4.21923 6.75128 3.73014 7.38908 3.73014Z" fill="white"/>
</svg>
