<svg width="19" height="16" viewBox="0 0 19 16" fill="none" xmlns="http://www.w3.org/2000/svg">
<path d="M18.2526 2.51993C18.1358 2.3879 17.9475 2.35469 17.793 2.43612C17.6969 2.48672 17.5163 2.55313 17.3018 2.61875C17.5724 2.24875 17.7899 1.83447 17.886 1.46209C17.9275 1.30159 17.8668 1.1324 17.7346 1.03674C17.6023 0.941865 17.4263 0.941865 17.2941 1.03674C17.0858 1.18616 16.0804 1.63523 15.4447 1.7807C14.0081 0.486472 12.3363 0.352068 10.5984 1.39568C9.18562 2.244 8.87816 3.96912 8.93811 5.02064C5.7044 4.70044 3.69438 2.9437 2.56292 1.48976C2.48375 1.38777 2.35615 1.33401 2.23624 1.34191C2.11019 1.3514 1.99643 1.42335 1.93186 1.53482C1.39688 2.46379 1.24853 3.4908 1.50449 4.50516C1.64438 5.05859 1.88881 5.54639 2.17245 5.9417C2.0364 5.87292 1.90496 5.78674 1.7812 5.68396C1.66744 5.5875 1.50833 5.56932 1.37382 5.63336C1.24007 5.69898 1.15475 5.83813 1.15475 5.99072C1.15475 7.73244 2.21395 8.89464 3.20321 9.50183C3.04333 9.48206 2.87653 9.44569 2.7082 9.39272C2.56369 9.34766 2.40689 9.39272 2.30696 9.50973C2.20704 9.62595 2.18321 9.79198 2.24547 9.9335C2.8012 11.1977 3.85425 12.0674 5.15712 12.3828C4.01951 13.0699 2.49682 13.4067 1.10248 13.2414C0.921852 13.2153 0.749674 13.3331 0.692794 13.5118C0.635914 13.6905 0.710473 13.8866 0.869584 13.9783C2.98491 15.1998 4.89731 15.6362 6.54991 15.6362C8.95502 15.6362 10.8113 14.7128 11.9412 13.9403C14.9874 11.861 16.886 8.12774 16.6215 4.78741C17.1096 4.41661 17.8399 3.73194 18.2926 2.99588C18.3864 2.84724 18.3695 2.65117 18.2526 2.51993Z" fill="white"/>
</svg>
